<svg width="50" height="94" viewBox="0 0 50 94" fill="none" xmlns="http://www.w3.org/2000/svg">
<circle cx="24.3082" cy="8.58654" r="8.58654" fill="white"/>
<rect x="14.8208" y="17.6252" width="18.5288" height="39.3173" rx="3.48456" fill="white"/>
<rect x="14.3696" y="47" width="7.68269" height="47" rx="3.84135" fill="white"/>
<rect x="26.5713" y="47" width="7.68269" height="47" rx="3.84135" fill="white"/>
<rect x="32.1191" y="23.625" width="7.68269" height="31.0276" rx="3.84135" transform="rotate(-18.9738 32.1191 23.625)" fill="white"/>
<rect x="5.32715" y="24.666" width="7.68269" height="26.3899" rx="3.84135" transform="rotate(11.6462 5.32715 24.666)" fill="white"/>
<path d="M14.7631 34.3467H33.292L42.7823 65.9813H4.8208L14.7631 34.3467Z" fill="white"/>
<path d="M4.6084 30.2001C4.6084 23.1437 10.3287 17.4233 17.3851 17.4233H29.0003C36.0567 17.4233 41.777 23.1437 41.777 30.2001V32.5231H4.6084V30.2001Z" fill="white"/>
</svg>
