<svg width="698" height="359" viewBox="0 0 698 359" fill="none" xmlns="http://www.w3.org/2000/svg">
<path d="M128.348 139.394H112.197V207.42H196.446V193.814H128.348V139.394Z" fill="#93EEF3"/>
<path fill-rule="evenodd" clip-rule="evenodd" d="M222.472 153.877C222.472 145.636 229.117 138.955 237.314 138.955H301.919C310.116 138.955 316.761 145.636 316.761 153.877V192.498C316.761 200.739 310.116 207.42 301.919 207.42H237.314C229.117 207.42 222.472 200.739 222.472 192.498V153.877ZM253.901 179.812C253.901 177.144 254.594 174.522 255.912 172.206L267.914 151.109C268.757 149.626 270.889 149.639 271.715 151.132L283.4 172.25C284.666 174.539 285.331 177.115 285.331 179.735C285.331 188.238 278.475 195.131 270.017 195.131H269.138C260.723 195.131 253.901 188.272 253.901 179.812Z" fill="#93EEF3"/>
<path d="M337.52 139.394H353.671V188.548C353.671 191.456 356.016 193.814 358.91 193.814H410.856C413.749 193.814 416.094 191.456 416.094 188.548V139.394H432.245V193.814C432.245 201.328 426.187 207.419 418.713 207.419H352.362C344.165 207.419 337.52 200.739 337.52 192.498V139.394Z" fill="#93EEF3"/>
<path fill-rule="evenodd" clip-rule="evenodd" d="M354.843 0.00815102C354.061 0.00272669 353.277 0 352.492 0C352.013 0 351.533 0.00102588 351.054 0.00305499C350.708 0.00203039 350.362 0.00125953 350.015 0.000750578C349.677 0.000255022 349.339 0 349 0C156.253 0 0 80.3649 0 179.5C0 278.635 156.253 359 349 359C349.289 359 349.577 359 349.865 358.999C350.262 358.999 350.658 358.998 351.054 358.997C351.533 358.999 352.013 359 352.492 359C352.945 359 353.397 358.999 353.849 358.997C354.181 358.996 354.512 358.994 354.843 358.992C355.223 358.997 355.604 359 355.984 359C357.085 359 358.182 358.977 359.276 358.932C359.475 358.928 359.674 358.924 359.873 358.92C360.127 358.914 360.38 358.908 360.633 358.902C547.995 355.746 698 276.633 698 179.5C698 82.3672 547.995 3.25398 360.633 0.0978517C360.181 0.0869763 359.729 0.0769948 359.277 0.0679208C358.183 0.0227381 357.085 0 355.984 0C355.604 0 355.223 0.00272669 354.843 0.00815102ZM625.778 278.247C666.66 249.547 689.27 215.155 689.27 179.5C689.27 140.269 661.897 102.566 612.927 72.2923L615.048 73.6168L549.844 73.7311C562.125 86.0873 562.445 89.0904 570.149 103.558H559.782C551.442 89.0357 550.619 86.011 537.207 73.7311H451.75C457.71 86.0873 459.291 89.0905 463.03 103.558H452.663C448.732 88.9447 448.227 85.9298 441.993 73.7311H269.976C263.742 85.9298 263.09 88.9447 259.158 103.558H248.792C252.53 89.0904 254.259 86.0873 260.219 73.7311H167.777C154.366 86.011 150.013 89.0357 141.673 103.558H131.307C139.011 89.0904 142.859 86.0873 155.14 73.7311H82.7708C35.2463 103.756 8.73046 140.888 8.73046 179.5C8.73046 215.155 31.3398 249.547 72.2223 278.247H148.503C136.407 264.777 134.691 264.216 127.851 248.538H138.218C145.598 264.257 147.341 264.842 160.503 278.247H256.998C251.128 264.777 248.656 264.216 245.337 248.538H255.703C259.182 264.359 260.452 264.931 266.571 278.247H445.397C451.517 264.931 452.64 264.359 456.119 248.538H466.485C463.166 264.216 460.841 264.777 454.971 278.247H544.482C557.643 264.842 555.857 264.257 563.238 248.538H573.604C566.764 264.216 568.578 264.777 556.481 278.247H625.778ZM609.522 288.78H546.264C523.312 310.73 493.61 328.67 459.44 340.921C510.024 332.117 555.171 317.453 591.804 298.611C597.978 295.436 603.886 292.156 609.522 288.78ZM450.013 288.78H533.268C529.067 292.425 524.654 295.948 520.04 299.34C487.76 323.064 445.892 340.077 398.837 346.907C419.234 334.922 436.895 314.633 450.013 288.78ZM271.819 288.78H440.149C437.742 293.245 435.193 297.514 432.514 301.571C412.88 331.308 386.938 348.848 359.288 350.145C357.624 350.17 355.957 350.189 354.287 350.202C326.036 349.522 299.469 331.884 279.455 301.571C276.776 297.514 274.227 293.245 271.819 288.78ZM171.717 288.78H261.956C275.514 315.502 293.927 336.279 315.196 348.087C264.463 342.216 219.28 324.574 184.945 299.34C180.33 295.948 175.917 292.425 171.717 288.78ZM88.4781 288.78H158.72C183.048 312.046 214.959 330.806 251.737 343.062C195.808 334.61 145.981 319.074 106.196 298.611C100.022 295.436 94.1137 292.156 88.4781 288.78ZM591.804 60.3887C593.608 61.3163 595.389 62.2528 597.147 63.1981H538.534C516.794 44.4324 489.891 28.9971 459.44 18.0791C510.024 26.883 555.171 41.5472 591.804 60.3887ZM520.04 59.6604C521.623 60.8242 523.183 62.0036 524.719 63.1981H446.262C433.608 40.6884 417.349 22.9706 398.837 12.0931C445.892 18.9234 487.76 35.9361 520.04 59.6604ZM432.514 57.4288C433.754 59.3069 434.966 61.2306 436.15 63.1981H275.819C277.002 61.2306 278.215 59.3069 279.455 57.4288C299.469 27.1163 326.036 9.4782 354.287 8.79795C355.957 8.81087 357.625 8.82989 359.289 8.85498C386.939 10.1524 412.88 27.6916 432.514 57.4288ZM315.196 10.9132C295.829 21.6653 278.829 39.855 265.707 63.1981H180.266C181.801 62.0036 183.361 60.8242 184.945 59.6604C219.28 34.4256 264.462 16.7843 315.196 10.9132ZM251.737 15.9377C218.735 26.9358 189.652 43.1702 166.451 63.1981H100.853C102.611 62.2528 104.392 61.3163 106.196 60.3887C145.981 39.926 195.808 24.3903 251.737 15.9377Z" fill="#93EEF3"/>
<path d="M128.348 139.394H112.197V207.42H196.446V193.814H128.348V139.394Z" fill="#93EEF3"/>
<path d="M473.41 138.077H457.258V206.103H473.41V192.498V138.077Z" fill="#93EEF3"/>
<path fill-rule="evenodd" clip-rule="evenodd" d="M585.298 195.927V200.149V205.713C585.298 206.305 584.815 206.784 584.223 206.778L498 206.018V195.927H570.415V178.887C570.415 178.299 569.94 177.823 569.353 177.821L499.062 177.567C498.475 177.565 498 177.089 498 176.501V170.584V156.029V145.524H508.862V148.861H519.724H530.587H541.449H552.311L584.898 148.676V138H519.724H500.132C498.954 138 498 138.954 498 140.132V145.524H508.862V148.861V157.08V165.897C508.862 166.486 509.339 166.963 509.928 166.963H545.07H578.902C582.435 166.963 585.298 169.827 585.298 173.359V174.204V195.927Z" fill="#93EEF3"/>
</svg>
