<svg width="698" height="357" viewBox="0 0 698 357" fill="none" xmlns="http://www.w3.org/2000/svg">
<path d="M115.591 139.221H99.452V206.868H183.637V193.339H115.591V139.221Z" fill="#93EEF3"/>
<path fill-rule="evenodd" clip-rule="evenodd" d="M406.968 154.06C406.968 145.865 413.608 139.221 421.798 139.221H486.355C494.546 139.221 501.185 145.865 501.185 154.06V192.466C501.185 200.661 494.546 207.304 486.355 207.304H421.798C413.608 207.304 406.968 200.661 406.968 192.466V154.06ZM438.374 179.851C438.374 177.198 439.066 174.591 440.383 172.288L452.375 151.308C453.218 149.833 455.349 149.846 456.174 151.331L467.85 172.331C469.115 174.607 469.78 177.169 469.78 179.774C469.78 188.23 462.929 195.084 454.477 195.084H453.599C445.19 195.084 438.374 188.264 438.374 179.851Z" fill="#93EEF3"/>
<path d="M192.361 139.221H208.5V188.101C208.5 190.994 210.844 193.339 213.734 193.339H265.641C268.532 193.339 270.876 190.994 270.876 188.101V139.221H287.015V193.339C287.015 200.811 280.961 206.868 273.493 206.868H207.192C199.001 206.868 192.361 200.224 192.361 192.029V139.221Z" fill="#93EEF3"/>
<path d="M311.005 139.221H295.739V206.868H312.314L312.096 168.244L340.23 206.432H354.189L382.105 167.807V206.868H398.244V139.221H383.413L346.773 188.538L311.005 139.221Z" fill="#93EEF3"/>
<path d="M509.909 139.221H526.048L583.19 185.483V139.221H598.893V206.868H583.19L526.048 160.606V206.868H509.909V139.221Z" fill="#93EEF3"/>
<path fill-rule="evenodd" clip-rule="evenodd" d="M354.575 0.00809783C353.793 0.00270372 353.01 0 352.226 0C351.746 0 351.268 0.00101223 350.789 0.00303003C350.443 0.00201114 350.097 0.00124531 349.751 0.000739193C349.413 0.000246398 349.074 0 348.736 0C156.134 0 0 79.9172 0 178.5C0 277.083 156.134 357 348.736 357C349.024 357 349.313 357 349.601 356.999C349.997 356.999 350.393 356.998 350.789 356.997C351.268 356.999 351.746 357 352.226 357C352.678 357 353.13 356.999 353.582 356.997C353.913 356.996 354.244 356.994 354.575 356.992C354.955 356.997 355.335 357 355.715 357C356.815 357 357.912 356.977 359.004 356.933C359.203 356.929 359.402 356.924 359.601 356.92C359.855 356.915 360.108 356.909 360.361 356.903C547.581 353.764 697.472 275.092 697.472 178.5C697.472 81.9083 547.581 3.23585 360.361 0.0973005C359.909 0.0864856 359.457 0.0765631 359.005 0.0675396C357.912 0.0226087 356.815 0 355.715 0C355.335 0 354.955 0.00270372 354.575 0.00809783ZM625.305 276.697C666.156 248.157 688.748 213.956 688.748 178.5C688.748 139.487 661.396 101.994 612.464 71.8895L612.851 73.3203H549.428C561.7 85.6077 571.877 99.0853 579.575 113.472H569.592C561.259 99.0309 550.202 85.5318 536.801 73.3203H451.409C457.363 85.6077 462.302 99.0853 466.037 113.472H457.012C453.084 98.9403 447.888 85.4511 441.658 73.3203H269.772C263.542 85.4511 258.346 98.9403 254.418 113.472H245.393C249.128 99.0853 254.067 85.6077 260.022 73.3203H167.651C154.249 85.5318 143.193 99.0309 134.859 113.472H124.877C132.575 99.0853 142.751 85.6077 155.023 73.3203H82.7082C35.2196 103.178 8.72386 140.103 8.72386 178.5C8.72386 213.956 31.3161 248.157 72.1677 276.697H148.391C136.304 263.301 126.618 248.644 119.784 233.054H129.372C136.747 248.685 147.229 263.367 160.381 276.697H256.803C250.938 263.301 246.238 248.644 242.922 233.054H251.848C255.325 248.786 260.255 263.456 266.37 276.697H445.06C451.175 263.456 456.106 248.786 459.582 233.054H468.509C465.192 248.644 460.492 263.301 454.627 276.697H544.07C557.222 263.367 567.704 248.685 575.079 233.054H584.667C577.833 248.644 568.148 263.301 556.06 276.697H625.305ZM609.061 287.171H545.851C522.916 308.999 493.237 326.839 459.093 339.022C509.638 330.267 554.751 315.684 591.357 296.948C597.526 293.79 603.43 290.529 609.061 287.171ZM449.673 287.171H532.865C528.667 290.796 524.258 294.299 519.647 297.672C487.391 321.264 445.555 338.182 398.536 344.974C418.917 333.056 436.565 312.88 449.673 287.171ZM271.614 287.171H439.817C437.411 291.611 434.864 295.857 432.187 299.891C412.568 329.463 386.646 346.904 359.017 348.194C357.354 348.219 355.688 348.238 354.019 348.251C325.79 347.575 299.242 330.035 279.243 299.891C276.567 295.857 274.019 291.611 271.614 287.171ZM171.587 287.171H261.757C275.306 313.744 293.705 334.406 314.958 346.148C264.263 340.309 219.114 322.766 184.805 297.672C180.194 294.299 175.784 290.796 171.587 287.171ZM88.4112 287.171H158.6C182.91 310.308 214.797 328.963 251.546 341.151C195.66 332.746 145.871 317.296 106.116 296.948C99.9467 293.79 94.0425 290.529 88.4112 287.171ZM591.357 60.0522C593.159 60.9747 594.938 61.906 596.695 62.846H538.126C516.403 44.1849 489.521 28.8356 459.093 17.9784C509.638 26.7332 554.751 41.3158 591.357 60.0522ZM519.647 59.328C521.229 60.4854 522.788 61.6582 524.322 62.846H445.924C433.28 40.4617 417.033 22.8426 398.536 12.0257C445.555 18.818 487.391 35.7358 519.647 59.328ZM432.187 57.1088C433.426 58.9765 434.638 60.8894 435.82 62.846H275.61C276.793 60.8894 278.004 58.9765 279.243 57.1088C299.242 26.9652 325.79 9.42539 354.019 8.74892C355.688 8.76177 357.354 8.78069 359.017 8.80564C386.646 10.0958 412.568 27.5374 432.187 57.1088ZM314.958 10.8524C295.605 21.5446 278.618 39.633 265.506 62.846H180.129C181.664 61.6582 183.222 60.4854 184.805 59.328C219.114 34.2338 264.263 16.6908 314.958 10.8524ZM251.546 15.8489C218.57 26.7858 189.509 42.9297 166.325 62.846H100.777C102.534 61.906 104.313 60.9747 106.116 60.0522C145.871 39.7036 195.66 24.2544 251.546 15.8489Z" fill="#93EEF3"/>
</svg>
