<svg width="54" height="76" viewBox="0 0 54 76" fill="none" xmlns="http://www.w3.org/2000/svg">
<path d="M38.1323 51.2411L37.7363 52.6308C37.5981 53.1155 37.8547 53.6252 38.3263 53.803L41.8736 55.1406C42.4147 55.3446 43.0128 55.0324 43.1548 54.4719L43.525 53.0107C43.5424 52.9418 43.5674 52.875 43.5995 52.8116L44.9714 50.0969L46.7703 47.093L49.1372 43.314L51.1254 39.6318L52.8008 35.3452C52.82 35.296 52.8351 35.2454 52.8461 35.1938L53.7553 30.9135C53.7693 30.8473 53.7764 30.7799 53.7764 30.7122V26.5504L53.5871 23.5465L52.8438 19.9334C52.8344 19.8874 52.8216 19.8422 52.8056 19.7981L51.5988 16.4729L50.0263 13.254C50.0017 13.2036 49.9728 13.1555 49.9398 13.1102L47.5277 9.78685L45.5395 7.55816L42.7938 5.23258L39.0806 2.85736C39.0314 2.82592 38.9795 2.79898 38.9256 2.77688L34.8336 1.10168C34.7755 1.07789 34.7152 1.05981 34.6536 1.04769L29.9157 0.115164C29.854 0.103033 29.7914 0.0969238 29.7285 0.0969238H24.4095C24.3577 0.0969238 24.306 0.101074 24.2549 0.109334L20.8296 0.662856C20.766 0.673139 20.7036 0.689746 20.6432 0.712431L16.0947 2.42251L12.0139 4.60573C11.9574 4.63596 11.904 4.67172 11.8546 4.71248L8.58714 7.40635C8.54283 7.44289 8.50185 7.48329 8.46469 7.52708L5.45165 11.0781C5.41474 11.1216 5.38175 11.1682 5.35305 11.2175L2.78374 15.6315C2.75809 15.6756 2.73596 15.7216 2.71756 15.7691L0.801644 20.718C0.771989 20.7946 0.752194 20.8747 0.742736 20.9562L0.103468 26.4708C0.0973252 26.5238 0.0955685 26.5772 0.0982152 26.6305L0.373185 32.1651C0.376566 32.2332 0.387118 32.3007 0.404664 32.3665L1.49517 36.4589C1.50797 36.5069 1.52445 36.5539 1.54446 36.5994L3.2186 40.407L4.63876 43.0233L7.38441 47.3837L10.0354 52.0349L10.9334 54.2972C11.1209 54.7697 11.6416 55.0169 12.1263 54.8636L15.5852 53.7694C16.0813 53.6124 16.3649 53.0917 16.2276 52.5898L15.8347 51.1537C15.8188 51.0953 15.7973 51.0385 15.7707 50.9841L14.4852 48.3527L12.9704 45.6396L10.7928 42.2481L8.99393 39.0504L7.22782 35.3402C7.20601 35.2944 7.18783 35.2469 7.17346 35.1982L5.99837 31.2202C5.97571 31.1435 5.96263 31.0642 5.95945 30.9843L5.77848 26.4466C5.77609 26.3867 5.77926 26.3268 5.78795 26.2675L6.32927 22.574C6.33837 22.5119 6.35349 22.4508 6.3744 22.3917L7.91763 18.025C7.94079 17.9594 7.97094 17.8966 8.00755 17.8375L10.3625 14.0368C10.3968 13.9814 10.4366 13.9296 10.4813 13.8822L13.0137 11.1979C13.0479 11.1617 13.0848 11.1281 13.1242 11.0975L15.7439 9.06355C15.7883 9.02902 15.8357 8.99843 15.8855 8.97213L18.6704 7.50104C18.7205 7.47457 18.7728 7.45255 18.8268 7.43523L23.4298 5.95727C23.5255 5.92653 23.6255 5.91088 23.726 5.91088H29.1729C29.2275 5.91088 29.282 5.91549 29.3358 5.92467L32.0055 6.38007C32.0652 6.39025 32.1238 6.406 32.1806 6.42712L36.1665 7.91058C36.2294 7.93397 36.2896 7.96382 36.3463 7.99965L39.4078 9.93493C39.4559 9.96535 39.5012 9.99995 39.5433 10.0383L42.9054 13.1073C42.9571 13.1545 43.0035 13.2072 43.0439 13.2643L45.3937 16.5944C45.4277 16.6425 45.4572 16.6936 45.4819 16.7471L47.0111 20.0614C47.0398 20.1237 47.0619 20.1888 47.0768 20.2557L48.0723 24.7017C48.0879 24.7712 48.0958 24.8422 48.0958 24.9134V29.0698L47.635 32.4653C47.6266 32.5271 47.6123 32.5879 47.5922 32.6468L46.1369 36.929C46.1174 36.9866 46.0924 37.0421 46.0625 37.095L43.3619 41.8605L40.1428 46.9961L38.1897 51.0894C38.1663 51.1382 38.1472 51.189 38.1323 51.2411Z" fill="white" stroke="black" stroke-width="0.193798"/>
<path d="M15.4043 69.0889H39.2415V70.0579C39.2415 72.8407 36.9856 75.0966 34.2027 75.0966H20.4431C17.6602 75.0966 15.4043 72.8407 15.4043 70.0579V69.0889Z" fill="white"/>
<path d="M10.9468 60.5618H43.3111C43.3111 63.8798 40.6214 66.5695 37.3034 66.5695H16.9545C13.6365 66.5695 10.9468 63.8798 10.9468 60.5618Z" fill="white"/>
<rect x="15.4043" y="65.0193" width="6.00775" height="4.26357" fill="white"/>
<rect x="33.2334" y="65.0193" width="6.00775" height="4.26357" fill="white"/>
<rect x="37.3032" y="56.6858" width="6.00775" height="4.26357" fill="white"/>
<rect x="10.9468" y="56.6858" width="6.00775" height="4.26357" fill="white"/>
<rect x="10.9468" y="52.4224" width="32.3643" height="6.00775" fill="white"/>
</svg>
