<svg width="92" height="75" viewBox="0 0 92 75" fill="none" xmlns="http://www.w3.org/2000/svg">
<path d="M13.5117 5.65753C13.5117 2.90617 16.1822 0.945583 18.8072 1.76972L38.3239 7.89705C40.0225 8.43033 41.1782 10.0046 41.1782 11.7849V52.5414C41.1782 55.1709 38.7247 57.112 36.1657 56.507L16.649 51.8926C14.8104 51.4579 13.5117 49.8164 13.5117 47.927V5.65753Z" fill="white"/>
<path d="M77.8525 5.55035C77.8525 2.79899 75.1821 0.838406 72.557 1.66254L53.0403 7.78988C51.3418 8.32315 50.186 9.89737 50.186 11.6777V52.4343C50.186 55.0638 52.6396 57.0049 55.1985 56.3998L74.7152 51.7854C76.5539 51.3507 77.8525 49.7092 77.8525 47.8198V5.55035Z" fill="white"/>
<rect x="82.356" y="10.7234" width="9.0077" height="55.333" rx="4.50385" fill="white"/>
<rect y="10.5088" width="9.0077" height="55.1186" rx="4.50385" fill="white"/>
<rect x="1.41553" y="65.1799" width="9.00771" height="47.2035" rx="1.71575" transform="rotate(-78.056 1.41553 65.1799)" fill="white"/>
<rect width="9.41617" height="46.2503" rx="1.71575" transform="matrix(-0.207521 -0.978231 -0.978231 0.207521 90.0835 65.4021)" fill="white"/>
</svg>
